<svg xmlns="http://www.w3.org/2000/svg" width="162" height="80" viewBox="0 0 162 80">
  <g fill="none" fill-rule="evenodd">
    <rect width="162" height="80" fill="#E5E5E6"/>
    <rect width="80" height="80" x="35" fill="#A1D6D3"/>
    <rect width="47" height="40" x="115" y="40" fill="#003354"/>
    <path fill="#EE847D" d="M35,0 L35,80 L22.9885057,80 L0,40 L22.9885057,0 L35,0 Z M115,0 L162,80 L68,80 L115,0 Z"/>
    <circle cx="68" cy="40" r="40" fill="#003354"/>
    <path fill="#E5E5E6" d="M102.944872,20.5209474 C106.164877,26.2851896 108,32.9282869 108,40 C108,62.09139 90.09139,80 68,80 L68,80 Z"/>
    <rect width="47" height="1" x="115" y="44" fill="#E5E5E6"/>
    <rect width="47" height="1" x="115" y="48.5" fill="#E5E5E6"/>
    <rect width="47" height="1" x="115" y="53" fill="#E5E5E6"/>
    <rect width="47" height="1" x="115" y="57.5" fill="#E5E5E6"/>
    <rect width="47" height="1" x="115" y="62" fill="#E5E5E6"/>
    <rect width="47" height="1" x="115" y="66.5" fill="#E5E5E6"/>
    <rect width="47" height="1" x="115" y="71" fill="#E5E5E6"/>
    <rect width="47" height="1" x="115" y="75.5" fill="#E5E5E6"/>
  </g>
</svg>
