<svg xmlns="http://www.w3.org/2000/svg" width="600" height="360" viewBox="0 0 600 360"><defs><style>.cls-1{fill:none;}.cls-2{fill:#dbf0ec;}.cls-3{fill:#fff;}.cls-4{fill:#033251;}.cls-5{fill:#e5e5e5;}.cls-6{fill:#003354;}.cls-7{fill:#858585;}.cls-8{clip-path:url(#clip-path);}.cls-9{clip-path:url(#clip-path-2);}.cls-10{fill:#68a8c6;}</style><clipPath id="clip-path"><path class="cls-1" d="M252,109.06c-38.34,19.36-65,61.93-65,111.38s26.65,92,65,111.38H491.55c38.34-19.35,65-61.93,65-111.38s-26.65-92-65-111.38Z"/></clipPath><clipPath id="clip-path-2"><rect class="cls-1" x="135.27" y="50.97" width="465.47" height="307.53"/></clipPath></defs><title>Asset 11</title><g id="Layer_2" data-name="Layer 2"><g id="插圖本人"><rect class="cls-1" width="600" height="360"/><rect class="cls-2" x="59.15" y="62.64" width="392.58" height="269.88" rx="15.25"/><path class="cls-3" d="M363.84,221.8h-323V45.61A10.41,10.41,0,0,1,51.29,35.2H353.43a10.41,10.41,0,0,1,10.41,10.41Z"/><path class="cls-4" d="M363.84,55.85h-323V44.78a9.59,9.59,0,0,1,9.58-9.59H354.25a9.59,9.59,0,0,1,9.59,9.59Z"/><rect class="cls-5" x="59.62" y="160.12" width="132.79" height="61.68"/><rect class="cls-5" x="212.31" y="160.12" width="132.79" height="61.68"/><path class="cls-6" d="M363.84,222.75h-323a1,1,0,0,1-1-.95V45.61A11.38,11.38,0,0,1,51.29,34.24H353.43a11.38,11.38,0,0,1,11.36,11.37V221.8A.94.94,0,0,1,363.84,222.75Zm-322-1.9H362.89V45.61a9.47,9.47,0,0,0-9.46-9.46H51.29a9.47,9.47,0,0,0-9.46,9.46Z"/><rect class="cls-5" x="59.62" y="75.05" width="285.48" height="66.32"/><path class="cls-3" d="M410.26,189H87.3V12.77A10.41,10.41,0,0,1,97.71,2.36H399.85a10.41,10.41,0,0,1,10.41,10.41Z"/><path class="cls-4" d="M410.26,23H87.3V12a9.59,9.59,0,0,1,9.59-9.59H400.67A9.59,9.59,0,0,1,410.26,12Z"/><path class="cls-7" d="M157.88,53.13l4.53-4.54a.33.33,0,0,0-.23-.57h-2.61a.84.84,0,0,0-.6.25l-2.87,2.87V44.53a.42.42,0,0,0-.32-.4L154,43.64a.42.42,0,0,0-.53.41V59.74a.42.42,0,0,0,.42.42h1.82a.42.42,0,0,0,.43-.42V55.11l4.79,4.8a.83.83,0,0,0,.59.25h2.41a.42.42,0,0,0,.3-.72Z"/><path class="cls-7" d="M172,47.86a6.3,6.3,0,1,0,6.3,6.3,6.3,6.3,0,0,0-6.3-6.3m0,10a3.68,3.68,0,1,1,3.68-3.68A3.68,3.68,0,0,1,172,57.84"/><path class="cls-7" d="M120.12,47.93A6.21,6.21,0,0,0,114,54.15V60a3.56,3.56,0,0,1-2.35,3.39.31.31,0,0,0,0,.57l1.73,1a.85.85,0,0,0,.93-.06,6.12,6.12,0,0,0,2.45-4.9V54.12A3.46,3.46,0,0,1,120,50.64a3.41,3.41,0,0,1,3.45,3.45A3.45,3.45,0,0,1,120,57.44h-1.51a.42.42,0,0,0-.42.42v1.88a.42.42,0,0,0,.42.42H120A6.22,6.22,0,0,0,126.19,54a6.11,6.11,0,0,0-6.07-6.07"/><path class="cls-7" d="M133.13,48.51,131.31,48a.42.42,0,0,0-.53.41V59.74a.42.42,0,0,0,.42.42H133a.42.42,0,0,0,.42-.42V48.91a.42.42,0,0,0-.32-.4"/><path class="cls-7" d="M184.5,48.51,182.68,48a.42.42,0,0,0-.53.41V59.74a.42.42,0,0,0,.42.42h1.83a.41.41,0,0,0,.41-.42V48.91a.41.41,0,0,0-.31-.4"/><path class="cls-7" d="M143.66,48.46a5.22,5.22,0,0,0-2.66.72v-.26a.43.43,0,0,0-.32-.41L138.86,48a.42.42,0,0,0-.53.4V59.74a.42.42,0,0,0,.42.42h1.82a.42.42,0,0,0,.43-.42v-6a2.66,2.66,0,0,1,5.32,0v6a.42.42,0,0,0,.42.42h1.83a.42.42,0,0,0,.42-.42v-6a5.33,5.33,0,0,0-5.33-5.33"/><line class="cls-3" x1="111.89" y1="149.38" x2="148.93" y2="149.38"/><line class="cls-3" x1="111.89" y1="157" x2="162.74" y2="157"/><line class="cls-3" x1="333.6" y1="149.38" x2="370.64" y2="149.38"/><line class="cls-3" x1="333.6" y1="157" x2="384.46" y2="157"/><line class="cls-3" x1="186.57" y1="149.38" x2="231.78" y2="149.38"/><line class="cls-3" x1="261.06" y1="149.38" x2="278.26" y2="149.38"/><line class="cls-3" x1="261.06" y1="157" x2="289.65" y2="157"/><path class="cls-6" d="M410.26,189.92H87.3a1,1,0,0,1-1-.95V12.77A11.38,11.38,0,0,1,97.71,1.41H399.85a11.37,11.37,0,0,1,11.36,11.36V189A1,1,0,0,1,410.26,189.92Zm-322-1.9H409.31V12.77a9.47,9.47,0,0,0-9.46-9.45H97.71a9.47,9.47,0,0,0-9.46,9.45Z"/><path class="cls-3" d="M252,109.06c-38.34,19.36-65,61.93-65,111.38s26.65,92,65,111.39H491.55c38.34-19.36,65-61.94,65-111.39s-26.64-92-65-111.38Z"/><path class="cls-6" d="M491.78,332.78h-240l-.21-.1C211.74,312.58,186,268.53,186,220.44s25.71-92.14,65.51-112.23l.21-.1h240l.2.1c39.8,20.09,65.51,64.14,65.51,112.23S531.78,312.58,492,332.68ZM252.2,330.87H491.32c39.05-19.82,64.27-63.13,64.27-110.43S530.37,129.83,491.32,110H252.2c-39,19.82-64.27,63.14-64.27,110.43S213.15,311.06,252.2,330.87Z"/><g class="cls-8"><g class="cls-9"><rect class="cls-6" x="370.81" y="109.06" width="1.91" height="222.77"/><path class="cls-6" d="M335.93,340.9c-34.46-66.42-34.46-174.5,0-240.92l1.69.88c-34.21,65.94-34.21,173.23,0,239.16Z"/><path class="cls-6" d="M407.59,340.9,405.9,340c34.21-65.94,34.21-173.22,0-239.16l1.69-.88C442.06,166.4,442.06,274.48,407.59,340.9Z"/><path class="cls-6" d="M299.05,341.17C262.8,308.91,242.84,266,242.84,220.44s20-88.46,56.21-120.73l1.27,1.42c-35.84,31.91-55.57,74.28-55.57,119.31s19.73,87.41,55.57,119.31Z"/><path class="cls-6" d="M444.47,341.17l-1.27-1.42c35.84-31.9,55.58-74.27,55.58-119.31S479,133,443.2,101.13l1.27-1.42c36.25,32.27,56.21,75.14,56.21,120.73S480.72,308.9,444.47,341.17Z"/><rect class="cls-6" x="180.85" y="219.49" width="380.02" height="1.91"/><rect class="cls-6" x="180.85" y="163.8" width="380.02" height="1.91"/><rect class="cls-6" x="180.85" y="275.18" width="380.02" height="1.91"/></g></g><path class="cls-6" d="M384.76,95.06a44.12,44.12,0,1,0-88.23,0,40.37,40.37,0,0,0,1.66,12,44.33,44.33,0,0,0,4.9,11.22,43.56,43.56,0,0,0,10.14,11.34c5.2,4.09,9.28,6.8,12.55,9,7.66,5.09,10.83,7.2,14,17.65a.86.86,0,0,0,.83.62h0a.87.87,0,0,0,.83-.62c3.2-10.45,6.37-12.56,14-17.65,3.27-2.18,7.35-4.89,12.55-9a43.56,43.56,0,0,0,10.14-11.34,44.69,44.69,0,0,0,4.9-11.22,40.37,40.37,0,0,0,1.66-12"/><path class="cls-3" d="M375.05,95.31a34.5,34.5,0,1,1-34.5-34.49,34.5,34.5,0,0,1,34.5,34.49"/><path class="cls-10" d="M350.81,86a10.26,10.26,0,1,1-10.26-10.25A10.26,10.26,0,0,1,350.81,86"/><path class="cls-10" d="M340.55,129.81a34.43,34.43,0,0,0,26.88-12.9,29.79,29.79,0,0,0-53.75,0,34.42,34.42,0,0,0,26.87,12.9"/><path class="cls-6" d="M223.52,228.13a44.12,44.12,0,1,0-88.23,0,40.32,40.32,0,0,0,1.66,12,44.53,44.53,0,0,0,4.9,11.22A43.41,43.41,0,0,0,152,262.72c5.2,4.09,9.28,6.8,12.56,9,7.65,5.1,10.82,7.21,14,17.66a.88.88,0,0,0,.83.61h0a.87.87,0,0,0,.83-.61c3.2-10.45,6.37-12.56,14-17.66,3.27-2.18,7.35-4.89,12.55-9A43.41,43.41,0,0,0,217,251.38a44.2,44.2,0,0,0,4.91-11.22,40.14,40.14,0,0,0,1.65-12"/><path class="cls-3" d="M213.81,228.38a34.5,34.5,0,1,1-34.49-34.5,34.49,34.49,0,0,1,34.49,34.5"/><path class="cls-10" d="M189.57,219.05a10.26,10.26,0,1,1-10.25-10.25,10.25,10.25,0,0,1,10.25,10.25"/><path class="cls-10" d="M179.32,262.87A34.45,34.45,0,0,0,206.19,250a29.78,29.78,0,0,0-53.74,0,34.41,34.41,0,0,0,26.87,12.89"/><path class="cls-6" d="M495,296.66a44.12,44.12,0,1,0-88.24,0,40.32,40.32,0,0,0,1.66,12,44.53,44.53,0,0,0,4.9,11.22,43.41,43.41,0,0,0,10.14,11.34c5.2,4.09,9.28,6.81,12.56,9,7.65,5.09,10.82,7.2,14,17.65a.88.88,0,0,0,.83.61h0a.88.88,0,0,0,.83-.61c3.2-10.45,6.37-12.56,14-17.65,3.27-2.18,7.35-4.9,12.55-9a43.41,43.41,0,0,0,10.14-11.34,44.2,44.2,0,0,0,4.91-11.22,40.71,40.71,0,0,0,1.66-12"/><path class="cls-3" d="M485.28,296.91a34.5,34.5,0,1,1-34.49-34.5,34.49,34.49,0,0,1,34.49,34.5"/><path class="cls-10" d="M461,287.59a10.26,10.26,0,1,1-10.25-10.26A10.25,10.25,0,0,1,461,287.59"/><path class="cls-10" d="M450.79,331.4a34.45,34.45,0,0,0,26.87-12.89,29.79,29.79,0,0,0-53.75,0,34.45,34.45,0,0,0,26.88,12.89"/></g></g></svg>