<svg xmlns="http://www.w3.org/2000/svg" width="600" height="360" viewBox="0 0 600 360"><defs><style>.cls-1{fill:none;}.cls-2{fill:#dbf0ec;}.cls-3{fill:#fff;}.cls-4{fill:#033251;}.cls-5{fill:#e5e5e5;}.cls-6{fill:#003354;}.cls-7{fill:#858585;}.cls-8{fill:#68a8c6;}</style></defs><title>Asset 12</title><g id="Layer_2" data-name="Layer 2"><g id="插圖本人"><rect class="cls-1" width="600" height="360"/><rect class="cls-2" x="65.28" y="60.95" width="477.46" height="271.91" rx="15.36"/><path class="cls-3" d="M565.27,332.39H173.43V118.62A12.63,12.63,0,0,1,186.06,106H552.64a12.63,12.63,0,0,1,12.63,12.63Z"/><path class="cls-4" d="M565.27,131.05H173.43V117.62A11.63,11.63,0,0,1,185.06,106H553.64a11.63,11.63,0,0,1,11.63,11.63Z"/><rect class="cls-5" x="196.17" y="257.55" width="161.11" height="74.84"/><rect class="cls-5" x="381.42" y="257.55" width="161.11" height="74.84"/><path class="cls-6" d="M565.27,333.35H173.43a1,1,0,0,1-1-1V118.62A13.6,13.6,0,0,1,186.06,105H552.64a13.6,13.6,0,0,1,13.59,13.59V332.39A1,1,0,0,1,565.27,333.35Zm-390.88-1.92H564.31V118.62A11.68,11.68,0,0,0,552.64,107H186.06a11.68,11.68,0,0,0-11.67,11.67Z"/><rect class="cls-5" x="196.17" y="154.34" width="346.36" height="80.46"/><path class="cls-3" d="M517.56,282.7H30.85V17.17A15.69,15.69,0,0,1,46.54,1.48H501.87a15.69,15.69,0,0,1,15.69,15.69Z"/><path class="cls-4" d="M517.56,32.6H30.85V15.93A14.45,14.45,0,0,1,45.3,1.48H503.11a14.45,14.45,0,0,1,14.45,14.45Z"/><path class="cls-7" d="M137.21,78l6.84-6.83a.51.51,0,0,0-.36-.87h-3.93a1.26,1.26,0,0,0-.89.37L134.53,75V65a.63.63,0,0,0-.47-.61l-2.75-.74a.64.64,0,0,0-.8.61V87.94a.64.64,0,0,0,.63.64h2.75a.64.64,0,0,0,.64-.64V81l7.22,7.23a1.31,1.31,0,0,0,.9.37h3.63a.64.64,0,0,0,.45-1.08Z"/><path class="cls-7" d="M158.56,70.05a9.49,9.49,0,1,0,9.49,9.49,9.49,9.49,0,0,0-9.49-9.49m0,15a5.54,5.54,0,1,1,5.54-5.54,5.54,5.54,0,0,1-5.54,5.54"/><path class="cls-7" d="M80.31,70.14A9.37,9.37,0,0,0,71,79.52v8.83a5.35,5.35,0,0,1-3.55,5.11.47.47,0,0,0-.07.86L70,95.83a1.29,1.29,0,0,0,1.41-.1,9.21,9.21,0,0,0,3.7-7.38V79.47a5.2,5.2,0,0,1,5-5.23,5.13,5.13,0,0,1,5.2,5.2,5.2,5.2,0,0,1-5.23,5H77.86a.64.64,0,0,0-.64.63v2.83a.64.64,0,0,0,.64.64h2.22a9.38,9.38,0,0,0,9.38-9.29,9.22,9.22,0,0,0-9.15-9.15"/><path class="cls-7" d="M99.93,71l-2.76-.73a.62.62,0,0,0-.79.61v17a.63.63,0,0,0,.63.64h2.75a.63.63,0,0,0,.63-.64V71.63a.64.64,0,0,0-.46-.61"/><path class="cls-7" d="M177.34,71l-2.75-.73a.63.63,0,0,0-.8.61v17a.64.64,0,0,0,.63.64h2.76a.64.64,0,0,0,.63-.64V71.63a.65.65,0,0,0-.47-.61"/><path class="cls-7" d="M115.79,71a8,8,0,0,0-4,1.08v-.4a.64.64,0,0,0-.47-.61l-2.75-.73a.63.63,0,0,0-.8.61v17a.64.64,0,0,0,.64.64h2.75a.64.64,0,0,0,.63-.64V79a4,4,0,0,1,8,0v9a.64.64,0,0,0,.63.64h2.75a.64.64,0,0,0,.64-.64V79a8,8,0,0,0-8-8"/><rect class="cls-8" x="66.15" y="120.78" width="82.2" height="82.2"/><rect class="cls-8" x="66.15" y="246.92" width="82.2" height="36.31"/><path class="cls-6" d="M107.43,188.37c-12.58,0-22.81-9.18-22.81-20.47,0-8,5.16-15.2,13.18-18.55l-.92-6.79a.71.71,0,0,1,.17-.57.75.75,0,0,1,.54-.24h19.64a.71.71,0,0,1,.71.82l-.92,6.76c8,3.35,13.21,10.58,13.21,18.57C130.23,179.19,120,188.37,107.43,188.37Zm-9-45.18.88,6.52a.7.7,0,0,1-.45.76c-7.77,3-12.79,9.88-12.79,17.43,0,10.49,9.59,19,21.37,19s21.36-8.54,21.36-19c0-7.56-5-14.41-12.82-17.44a.71.71,0,0,1-.45-.77l.89-6.5Z"/><line class="cls-3" x1="67.9" y1="223.03" x2="123.73" y2="223.03"/><rect class="cls-6" x="67.9" y="222.17" width="55.82" height="1.72"/><line class="cls-3" x1="67.9" y1="234.52" x2="144.54" y2="234.52"/><rect class="cls-6" x="67.9" y="233.66" width="76.64" height="1.72"/><rect class="cls-8" x="400.28" y="120.78" width="82.2" height="82.2"/><rect class="cls-8" x="400.28" y="246.92" width="82.2" height="36.31"/><line class="cls-3" x1="402.03" y1="223.03" x2="457.86" y2="223.03"/><rect class="cls-6" x="402.03" y="222.17" width="55.82" height="1.72"/><line class="cls-3" x1="402.03" y1="234.52" x2="478.67" y2="234.52"/><rect class="cls-6" x="402.03" y="233.66" width="76.64" height="1.72"/><rect class="cls-8" x="177.53" y="120.78" width="82.2" height="82.2"/><rect class="cls-8" x="177.53" y="246.92" width="82.2" height="36.31"/><path class="cls-6" d="M233.66,188.16h-29a.51.51,0,0,1-.51-.52V148a.51.51,0,0,1,.51-.52h4.58v-5a.51.51,0,0,1,.51-.52h18.8a.52.52,0,0,1,.52.52v5h4.57a.52.52,0,0,1,.52.52v39.69A.52.52,0,0,1,233.66,188.16Zm-28.46-1h28V148.47h-4.58a.53.53,0,0,1-.52-.52v-5H210.29v5a.52.52,0,0,1-.52.52H205.2Z"/><path class="cls-6" d="M233.66,148.67h-29a.72.72,0,0,1,0-1.44h29a.72.72,0,0,1,0,1.44Z"/><line class="cls-3" x1="180.45" y1="223.03" x2="248.59" y2="223.03"/><rect class="cls-6" x="180.45" y="222.17" width="68.14" height="1.72"/><line class="cls-3" x1="180.45" y1="234.52" x2="223.53" y2="234.52"/><rect class="cls-6" x="180.45" y="233.66" width="43.08" height="1.72"/><rect class="cls-8" x="288.9" y="120.78" width="82.2" height="82.2"/><rect class="cls-8" x="288.9" y="246.92" width="82.2" height="36.31"/><line class="cls-3" x1="292.71" y1="223.03" x2="318.63" y2="223.03"/><rect class="cls-6" x="292.71" y="222.17" width="25.92" height="1.72"/><line class="cls-3" x1="292.71" y1="234.52" x2="335.79" y2="234.52"/><rect class="cls-6" x="292.71" y="233.66" width="43.08" height="1.72"/><path class="cls-6" d="M335.61,181.24h0l-13.8-.06a.71.71,0,0,1-.71-.72v-3.32a27.52,27.52,0,0,1-19.54-22.53l-.7-4.91a.73.73,0,0,1,.71-.83h0l54.52.24a.73.73,0,0,1,.55.25.75.75,0,0,1,.16.58l-.74,4.9a27.53,27.53,0,0,1-19.74,22.37v3.31a.74.74,0,0,1-.21.51A.75.75,0,0,1,335.61,181.24Zm-13.07-1.5,12.35.06v-3.14a.75.75,0,0,1,.54-.7,26.08,26.08,0,0,0,19.21-21.33l.62-4.08-52.86-.23.59,4.08a26.06,26.06,0,0,0,19,21.5.73.73,0,0,1,.53.7Z"/><path class="cls-6" d="M517.56,283.66H30.85a1,1,0,0,1-1-1V17.17A16.67,16.67,0,0,1,46.54.52H501.87a16.67,16.67,0,0,1,16.65,16.65V282.7A1,1,0,0,1,517.56,283.66ZM31.81,281.74H516.6V17.17A14.75,14.75,0,0,0,501.87,2.44H46.54A14.75,14.75,0,0,0,31.81,17.17Z"/><path class="cls-6" d="M456.82,187.94H425.94a.72.72,0,0,1-.72-.72V168a13.63,13.63,0,0,1,1.9-7c4.49-7.52,6.77-15.21,6.77-22.87v-1.58a.72.72,0,0,1,.72-.72h13.54a.72.72,0,0,1,.72.72v1.58c0,7.65,2.28,15.35,6.77,22.87a13.63,13.63,0,0,1,1.9,7v19.21A.72.72,0,0,1,456.82,187.94Zm-30.16-1.44H456.1V168a12.23,12.23,0,0,0-1.69-6.28c-4.63-7.75-7-15.69-7-23.61v-.86h-12.1v.86c0,7.92-2.35,15.86-7,23.61a12.23,12.23,0,0,0-1.69,6.28Z"/></g></g></svg>