<svg xmlns="http://www.w3.org/2000/svg" width="600" height="360" viewBox="0 0 600 360"><defs><style>.cls-1{fill:none;}.cls-2{fill:#dbf0ec;}.cls-3{fill:#033251;}.cls-4{fill:#5ca1be;}.cls-5{fill:#fff;}.cls-6{fill:#003354;}.cls-7{fill:#20264d;}.cls-8{fill:#b2d2e0;}.cls-9{fill:#003454;}</style></defs><title>Asset 13</title><g id="Layer_2" data-name="Layer 2"><g id="插圖本人"><rect class="cls-1" width="600" height="360"/><rect class="cls-2" x="169.04" y="64.96" width="365.06" height="266.35" rx="15.37"/><path class="cls-3" d="M335.86,113.39c-1.42-2.09,4.64-8.8,5.79-9.86C374.3,73.68,428.9,99.64,429.33,142c0,.22,5.43.82,5.89.94A32,32,0,0,1,449,150.76c12.4,11.92,15.92,31,8.24,46.33,0,0,34.18,5.59,26.51,36.28,0,0-4.19,15.35-16.05,22.32,0,0,19.53,9.76-2.09,27.9,0,0-16.74,11.86-32.09-4.18,0,0-7-9.07,0-18.14,0,0-19.53,6.28-29.3-13.25,0,0-7-15.35,8.37-31.39,0,0-29.29,5.58-36.27-17.44,0,0-28.38,5.35-16.52-7.9a378.91,378.91,0,0,1-3-47.21l-20.93-30.69"/><path class="cls-4" d="M398.55,126.36a6.06,6.06,0,1,1-6.06-6,6.06,6.06,0,0,1,6.06,6"/><path class="cls-5" d="M356.68,123.86s-11.86,27.08-35,47.67l54.52,1.84-9.29-32Z"/><path class="cls-6" d="M377.52,174.38l-58.24-2,1.79-1.6c22.68-20.2,34.61-47.06,34.73-47.33l.76-1.73,11.3,19.4Zm-53.41-3.73,50.82,1.72-8.88-30.57-9.28-15.87C353.84,132,342.75,153.35,324.11,170.65Z"/><path class="cls-5" d="M211.29,330.8c0-101.73,63.63-164.38,142.13-164.38S495.55,265.79,495.55,330.8Z"/><path class="cls-6" d="M496.51,331.76H210.33v-1c0-48.92,14.48-90.76,41.88-121,25.92-28.6,61.87-44.36,101.21-44.36,79,0,143.09,100,143.09,165.34Zm-284.26-1.92H494.59C494,265.29,431,167.39,353.42,167.39c-38.8,0-74.23,15.52-99.79,43.72C226.74,240.78,212.44,281.82,212.25,329.84Z"/><path class="cls-5" d="M305.68,115.4A43.42,43.42,0,1,0,349.1,72a43.42,43.42,0,0,0-43.42,43.42"/><path class="cls-6" d="M349.1,159.78a44.38,44.38,0,1,1,44.38-44.38A44.43,44.43,0,0,1,349.1,159.78Zm0-86.84a42.46,42.46,0,1,0,42.46,42.46A42.51,42.51,0,0,0,349.1,72.94Z"/><path class="cls-3" d="M311.49,93.69a43.43,43.43,0,0,1,75.22,0Z"/><path class="cls-6" d="M387.31,94H310.89l.3-.51a43.77,43.77,0,0,1,75.82,0Zm-75.22-.69h74a43.09,43.09,0,0,0-74,0Z"/><path class="cls-6" d="M387.31,94H310.89l.3-.51a43.77,43.77,0,0,1,75.82,0Zm-75.22-.69h74a43.09,43.09,0,0,0-74,0Z"/><path class="cls-3" d="M363.49,119a2.69,2.69,0,1,0,2.69-2.69,2.68,2.68,0,0,0-2.69,2.69"/><path class="cls-6" d="M366.18,122.06a3,3,0,1,1,3.05-3A3,3,0,0,1,366.18,122.06Zm0-5.39a2.34,2.34,0,1,0,2.34,2.34A2.34,2.34,0,0,0,366.18,116.67Z"/><path class="cls-3" d="M341.18,119a2.7,2.7,0,1,0,2.69-2.69,2.69,2.69,0,0,0-2.69,2.69"/><path class="cls-6" d="M343.87,122.06a3,3,0,1,1,3.05-3A3,3,0,0,1,343.87,122.06Zm0-5.39a2.34,2.34,0,1,0,2.34,2.34A2.33,2.33,0,0,0,343.87,116.67Z"/><path class="cls-4" d="M312.51,125.41a8.29,8.29,0,1,1-8.29-8.29,8.29,8.29,0,0,1,8.29,8.29"/><path class="cls-3" d="M359.51,73.24s-4.58,36.56-53.2,34.81c0,0,8.43-43.64,53.2-34.81"/><path class="cls-6" d="M309.61,108.45c-1.08,0-2.18,0-3.31-.06l-.4,0L306,108c0-.19,3.88-19.31,19.23-29.65,9.3-6.27,20.87-8.09,34.37-5.43l.31.06,0,.32a40.34,40.34,0,0,1-8.44,18.24C345.07,99.35,332.72,108.45,309.61,108.45Zm-2.87-.73c13.76.44,32.38-2.14,44.12-16.61a40.14,40.14,0,0,0,8.26-17.6c-13.18-2.53-24.45-.72-33.53,5.39C311.69,88.26,307.37,104.94,306.74,107.72Z"/><path class="cls-3" d="M343.1,83.34s2.56,18.69,47.17,18.27c0,0-10.2-28.46-47.17-18.27"/><path class="cls-6" d="M388.78,102c-43,0-45.91-17.8-46-18.57l0-.3L343,83c36.85-10.16,47.48,18.2,47.58,18.48l.17.46h-2ZM343.5,83.59c.59,2.33,6,17.68,45.32,17.68h.94C388.23,97.69,376.91,74.53,343.5,83.59Z"/><path class="cls-7" d="M430.25,317.25c-.06-.76-6.9-76.45-29.77-104.21l1.48-1.22c9.78,11.87,17.83,33.2,23.94,63.41a420.92,420.92,0,0,1,6.26,41.85Z"/><path class="cls-5" d="M170.6,78.17a673.16,673.16,0,0,1,42.79,58.22l-71.77.87,11.63-42.18Z"/><path class="cls-6" d="M140.35,138.24,152.4,94.57l.18-.18,18.09-17.63.67.79a680.37,680.37,0,0,1,42.86,58.32l.94,1.46Zm13.76-42.66-11.22,40.71,68.75-.84a682.34,682.34,0,0,0-41.12-55.87Z"/><path class="cls-5" d="M96.55,41.6c-.63,8.95,7.23,17.31,28.07,10.81,5.72-1.78,16.61-2.66,25.17-5.72,1.28-9.48-51.71-27.1-53.24-5.09"/><path class="cls-6" d="M111.43,55.69c-5.59,0-9.12-1.6-11.32-3.33a12.27,12.27,0,0,1-4.52-10.83h0a10.8,10.8,0,0,1,6.69-9.59c11.53-5.31,34.75,1.43,44.19,8.4,3.1,2.3,4.54,4.48,4.27,6.48a1,1,0,0,1-.63.78A102.77,102.77,0,0,1,134,51.39a85.73,85.73,0,0,0-9.1,1.94A45.79,45.79,0,0,1,111.43,55.69Zm-13.93-14a10.41,10.41,0,0,0,3.81,9.2c4.57,3.61,12.75,3.84,23,.64a84,84,0,0,1,9.33-2A105.44,105.44,0,0,0,148.82,46c-.21-1.14-1.44-2.61-3.49-4.12-9.11-6.73-31.66-13.08-42.25-8.2a9,9,0,0,0-5.58,8Z"/><path class="cls-5" d="M218.79,68.18a51.74,51.74,0,1,1-51.74-51.74,51.75,51.75,0,0,1,51.74,51.74"/><path class="cls-6" d="M167.05,120.65a52.47,52.47,0,1,1,52.46-52.46A52.52,52.52,0,0,1,167.05,120.65Zm0-103.48a51,51,0,1,0,51,51A51.07,51.07,0,0,0,167.05,17.17Z"/><path class="cls-6" d="M167.05,120.89a52.71,52.71,0,1,1,52.7-52.7A52.76,52.76,0,0,1,167.05,120.89Zm0-103.48a50.78,50.78,0,1,0,50.78,50.78A50.84,50.84,0,0,0,167.05,17.41Z"/><path class="cls-3" d="M146.5,65.39a3.21,3.21,0,1,1-3.22-3.21,3.22,3.22,0,0,1,3.22,3.21"/><path class="cls-6" d="M143.29,69a3.56,3.56,0,1,1,3.56-3.56A3.56,3.56,0,0,1,143.29,69Zm0-6.41a2.86,2.86,0,1,0,2.85,2.85A2.86,2.86,0,0,0,143.29,62.54Z"/><path class="cls-3" d="M173.08,65.39a3.21,3.21,0,1,1-3.21-3.21,3.21,3.21,0,0,1,3.21,3.21"/><path class="cls-6" d="M169.87,69a3.56,3.56,0,1,1,3.56-3.56A3.56,3.56,0,0,1,169.87,69Zm0-6.41a2.86,2.86,0,1,0,2.85,2.85A2.86,2.86,0,0,0,169.87,62.54Z"/><path class="cls-3" d="M96,41.63C96,22.53,135.17.12,169.89.78c30,.58,47.35,9.71,48.45,23.26a78.19,78.19,0,0,1-2,26.13S199,45.65,173,48.29c-36.56,3.7-47.63-10.63-62.54-12.17-7.38-.76-13.8,1.05-14.43,5.51"/><path class="cls-4" d="M49.28,331.6c0-103.37,45.64-201.81,94-202.8,27-.55,51-2.06,70.44,5.11,64.12,23.68,86.54,91.53,86.54,197.69Z"/><path class="cls-5" d="M286.09,211.22,221,222.17s12,55.11,18.27,110.35h77.58a661.47,661.47,0,0,0-30.74-121.3"/><path class="cls-6" d="M315.46,331.74a652,652,0,0,0-30-119.44L222.12,223c1.59,7.6,11.92,57.94,17.67,108.54l-1.91.22c-6.2-54.56-17.73-108.8-17.84-109.34l-.21-1,66.89-11.25.28.75a654.38,654.38,0,0,1,30.36,120.57Z"/><path class="cls-4" d="M171.48,128.31c3,0,54.09-3.43,89,20.84,20.3,14.1,37.86,45.1,37,74.06-21.29,5.55-81.66,18.61-81.66,18.61"/><polygon class="cls-6" points="208.59 244.02 196.84 171.52 198.74 171.21 210.16 241.7 291.42 223.74 291.84 225.62 208.59 244.02"/><rect class="cls-1" x="49.28" y="0.77" width="489.33" height="331.75"/><rect class="cls-1" x="49.28" y="0.77" width="489.33" height="331.75"/><ellipse class="cls-8" cx="485.42" cy="24.45" rx="18.78" ry="20.31" transform="translate(-0.29 6.69) rotate(-0.79)"/><line class="cls-5" x1="442.22" y1="54.21" x2="460.3" y2="83.84"/><rect class="cls-9" x="450.39" y="51.67" width="1.73" height="34.71" transform="translate(30.1 245.18) rotate(-31.39)"/><line class="cls-5" x1="505.86" y1="53.33" x2="488.6" y2="83.45"/><rect class="cls-9" x="479.88" y="67.53" width="34.71" height="1.73" transform="translate(190.62 465.77) rotate(-60.18)"/><circle class="cls-3" cx="461.49" cy="47.41" r="4.76"/><path class="cls-9" d="M421.94,52.17a9,9,0,0,1-.12-17.94h.12a9,9,0,0,1,.13,17.94Zm0-16.21h-.1a7.24,7.24,0,0,0-4.95,12.43,7.33,7.33,0,0,0,5.15,2,7.24,7.24,0,0,0-.1-14.48Z"/></g></g></svg>