<svg xmlns="http://www.w3.org/2000/svg" width="600" height="360" viewBox="0 0 600 360"><defs><style>.cls-1{fill:none;}.cls-2{fill:#dbf0ec;}.cls-3{fill:#033251;}.cls-4{fill:#fff;}.cls-5{fill:#003354;}.cls-6{fill:#5ca1be;}.cls-7{fill:#20264d;}</style></defs><title>Asset 14</title><g id="Layer_2" data-name="Layer 2"><g id="插圖本人"><rect class="cls-1" width="600" height="360"/><path class="cls-2" d="M427.32,358H93c-15.09,0-30.38-12.35-30.38-27.44V107.86A27.51,27.51,0,0,1,90,80.43H429.72a27.51,27.51,0,0,1,27.44,27.43V330.15a19.06,19.06,0,0,1-.21,2.73C454.93,347.43,442,358,427.32,358Z"/><rect class="cls-3" x="225.4" y="1.05" width="288.57" height="180.75"/><path class="cls-4" d="M510.9,196.32c16.11-12.1,4.86-15.17,4.86-15.17,14.43-16.27-1.15-21.69-1.15-21.69,2.44-18.36-13.41-9.72-13.41-9.72-19.35,12.08-32.8,16.08-40.41,17.37a4.3,4.3,0,0,1-4.9-5.11,50.58,50.58,0,0,0,1-8.15c-.37-6.34-6.7-9.39-12.29-5.56-6.29,4.31-11.46,14.21-13.62,21.28-1.15,3.78-1.54,7.75-2.56,11.57-3.72,14-20.58,23.59-32.38,30A216.73,216.73,0,0,1,343.75,231a62.14,62.14,0,0,1-30.3,0,122.65,122.65,0,0,1-22.94-8.47q-17,17.42-34.1,34.8c-5.48,5.59-6.51,8.54-13.45,12.32.07,0,22.48,16.64,25,18.07a116.2,116.2,0,0,0,74.82,13.89s58.11,1.84,121-79.67Z"/><path class="cls-5" d="M325.31,303.81a116.12,116.12,0,0,1-31.53-4.3,120,120,0,0,1-26.25-10.95c-1.79-1-12.43-8.82-19.47-14-2.86-2.11-5.33-3.93-5.6-4.09l.5-.78-.53-.89.21-.12a28.53,28.53,0,0,0,9.08-7.68c1.1-1.27,2.36-2.72,4-4.39l1-1.06q16.53-16.86,33.05-33.73l.5-.51.63.31A121.68,121.68,0,0,0,313.7,230a61.27,61.27,0,0,0,29.82,0,214.41,214.41,0,0,0,52.07-19.72c10.53-5.75,28.16-15.37,31.9-29.42.44-1.68.78-3.44,1.1-5.14a60.06,60.06,0,0,1,1.47-6.46c2.27-7.44,7.62-17.44,14-21.81a9.14,9.14,0,0,1,9.24-1,8.51,8.51,0,0,1,4.59,7.35,51.14,51.14,0,0,1-1,8.39,3.32,3.32,0,0,0,3.78,3.95c7.77-1.31,21-5.36,40.05-17.23.35-.2,7.55-4,12-1,2.6,1.79,3.61,5.46,3,10.94,1.69.76,5.72,3,6.89,7.47,1.09,4.17-.65,9-5.18,14.46a5.56,5.56,0,0,1,3.1,3.77c.64,3.37-2.38,7.6-9,12.56l-.12.08-46.93,25.5c-32.55,42.16-63.8,61.63-84.31,70.54-22.33,9.7-36.74,9.37-37.33,9.35A124.89,124.89,0,0,1,325.31,303.81Zm-80.55-34.07c.94.66,2.34,1.69,4.46,3.25,6.58,4.83,17.59,12.92,19.27,13.86a115.36,115.36,0,0,0,74.21,13.77c.73,0,58.56.78,120.32-79.3l.3-.26,47.05-25.57c7.76-5.84,8.46-9.14,8.18-10.58-.39-2-3-2.8-3-2.81l-1.52-.42,1-1.18c4.71-5.31,6.61-9.92,5.64-13.68-1.18-4.56-6.33-6.42-6.38-6.44l-.75-.26.1-.79c.68-5.09,0-8.4-2.08-9.81-3.44-2.37-9.83,1-9.89,1.08-19.24,12-32.77,16.13-40.72,17.47a5.28,5.28,0,0,1-6-6.26,50.48,50.48,0,0,0,1-7.9,6.5,6.5,0,0,0-3.5-5.7,7.12,7.12,0,0,0-7.27.89c-6,4.1-11.05,13.64-13.23,20.76a60.74,60.74,0,0,0-1.42,6.25c-.32,1.74-.66,3.53-1.13,5.28-3.95,14.87-22.05,24.74-32.86,30.64A216.58,216.58,0,0,1,344,231.94a63.22,63.22,0,0,1-30.78,0,123.55,123.55,0,0,1-22.48-8.23q-16.26,16.63-32.57,33.23l-1,1.07c-1.59,1.62-2.82,3-3.91,4.29A30.76,30.76,0,0,1,244.76,269.74Z"/><path class="cls-3" d="M487.73,176.39a.74.74,0,0,1-.34-1.39,234.19,234.19,0,0,0,26.79-16.13.73.73,0,1,1,.86,1.19,235.09,235.09,0,0,1-27,16.24A.68.68,0,0,1,487.73,176.39Z"/><path class="cls-3" d="M491.2,193.47a.73.73,0,0,1-.29-1.4c5.6-2.48,24.34-11.49,24.53-11.58a.73.73,0,0,1,1,.35.74.74,0,0,1-.34,1c-.19.09-19,9.11-24.58,11.59A.8.8,0,0,1,491.2,193.47Z"/><path class="cls-4" d="M199.08,9.81c5.15-3.86,7.76-3.76,9.07-2.64a4.29,4.29,0,0,0,5.29.14c7.84-5.63,12.49-1.67,14.53,1.12a4.21,4.21,0,0,0,3.78,1.72c12.4-1.2,7.71,10.41,7.09,11.83,0,.09-.08.18-.13.27-9.15,17-12.18,31.33-13.1,40.57-.38,3.9,5.41,4.32,8.41,1.8,4.11-3.45,9-6.17,12-3.06,5.94,6.16-1.61,18.94-20.17,26C197.72,98.31,179.39,143.05,175,165.1c-2.12,10.71-2.33,22,1.13,32.35,1.73,5.15,8.64,5.9,13.45,8.65a4.32,4.32,0,0,1,.95,6.65c-7.24,7.9-8.55,8.71-17.37,18.53-5,5.53-10.53,10.39-15.31,16A4.24,4.24,0,0,1,153,248.5C118.6,234,97.79,194.79,108.25,158.17,119.17,120,145.21,87,174.57,61a4.28,4.28,0,0,0,1.3-2.1C177.67,52.08,186.89,19,199.08,9.81Z"/><path class="cls-5" d="M154.62,249.8a5,5,0,0,1-2-.4c-35.79-15.05-55.7-55.24-45.34-91.5C117,124,140,90.26,173.92,60.27a3.22,3.22,0,0,0,1-1.61C176.67,52,186,18.38,198.49,9h0c4.72-3.54,8.18-4.41,10.3-2.6a3.3,3.3,0,0,0,4.08.09c8.82-6.34,14-1.19,15.89,1.33a3.23,3.23,0,0,0,2.89,1.32c4-.38,6.82.47,8.34,2.56,2.61,3.59.25,9.49-.25,10.64a2.81,2.81,0,0,1-.17.35c-9.12,17-12.09,31.22-13,40.2a1.74,1.74,0,0,0,1,1.89,5.8,5.8,0,0,0,5.81-.94c7.42-6.22,11.35-5.06,13.36-3a8.37,8.37,0,0,1,2,8c-1.64,7.32-10.48,15-22.53,19.62-15.34,5.85-26.87,21.77-33.84,34.09-9,15.91-14.37,32.5-16.39,42.71-2.36,11.91-2,22.63,1.1,31.84,1.06,3.15,4.48,4.49,8.1,5.92a36.73,36.73,0,0,1,4.91,2.2,5.17,5.17,0,0,1,2.53,3.7,5.35,5.35,0,0,1-1.35,4.46c-3.16,3.45-5.22,5.58-7.21,7.64-2.55,2.63-5.18,5.35-10.15,10.89-2.23,2.48-4.61,4.85-6.91,7.15-2.83,2.83-5.76,5.75-8.38,8.86A5.28,5.28,0,0,1,154.62,249.8Zm45-239.2c-11.95,9-21.13,42-22.85,48.56a5.3,5.3,0,0,1-1.6,2.58c-33.62,29.74-56.45,63.18-66,96.7-10.09,35.33,9.33,74.48,44.22,89.15a3.25,3.25,0,0,0,3.72-.91c2.68-3.16,5.64-6.12,8.5-9,2.28-2.28,4.64-4.63,6.83-7.07,5-5.56,7.64-8.3,10.2-10.94,2-2.05,4-4.17,7.18-7.6a3.43,3.43,0,0,0,.85-2.84,3.17,3.17,0,0,0-1.57-2.3,36.55,36.55,0,0,0-4.65-2.08c-3.88-1.52-7.89-3.1-9.24-7.11-3.19-9.55-3.59-20.6-1.16-32.85,4.09-20.69,22.05-67,51.46-78.25,13.91-5.3,20.17-13.13,21.31-18.22a6.47,6.47,0,0,0-1.51-6.2c-2.57-2.67-7.23.23-10.68,3.13a7.72,7.72,0,0,1-8,1.17,3.71,3.71,0,0,1-2-3.82c.9-9.15,3.93-23.69,13.21-40.94l.1-.2c.26-.59,2.48-5.91.45-8.7-1.08-1.48-3.28-2.07-6.56-1.76A5.22,5.22,0,0,1,227.18,9c-2.27-3.1-6.4-5.77-13.17-.9a5.25,5.25,0,0,1-6.49-.19c-1.29-1.11-4.08-.16-7.85,2.68Z"/><path class="cls-3" d="M216.09,36.79h-.16a1,1,0,0,1-.81-1.13C216.85,25,228,10.54,228.44,9.93a1,1,0,0,1,1.37-.18,1,1,0,0,1,.18,1.38c-.12.14-11.28,14.69-12.94,24.84A1,1,0,0,1,216.09,36.79Z"/><path class="cls-3" d="M200.41,34.62a1,1,0,0,1-.34-.06,1,1,0,0,1-.58-1.26c1.93-5.24,9-22.76,9.1-22.93a1,1,0,1,1,1.81.73c-.07.18-7.15,17.66-9.07,22.88A1,1,0,0,1,200.41,34.62Z"/><path class="cls-6" d="M214.72,275.5c2.64-5.08,27.66-76.3,25.16-77.3L343.4,230.88,292.88,300Z"/><rect class="cls-4" x="152.21" y="152.87" width="62.48" height="62.48"/><path class="cls-4" d="M213.68,166.49s-2.21,14.9-14.36,43.44l33.35-1.21-5.87-32.33Z"/><path class="cls-3" d="M197.81,211l.61-1.42c12-28,14.27-43,14.29-43.2l.24-1.63,14.75,11.13,6.14,33.82Zm16.55-42.73c-.9,4.48-4.15,18.37-13.54,40.66l30.69-1.11-5.61-30.84Z"/><path class="cls-6" d="M295.13,358.13s0-23.85-16.87-118.39c-8.18-45.79-76-56-98.47-35.52-21.58,19.64-25.07,54.12-43.67,153.29Z"/><path class="cls-6" d="M163.71,274.69c-5.58-1.27-23.39-27.09-35-42.55l46.1-57.2s45,26.33,44.43,55.94C219.25,230.88,215.59,286.49,163.71,274.69Z"/><path class="cls-3" d="M203.21,119.14c-2.57-.64-13.07-.78-16.46,1-28.51,15.31-33.1,60,.73,73.08,26.46,10.26,50.33-16.88,55.53-40.41l-30.09-26.31c-2.27-2-4.48-4.37-7-6.08A8.35,8.35,0,0,0,203.21,119.14Z"/><circle class="cls-4" cx="213.68" cy="154.67" r="33.53"/><path class="cls-3" d="M213.65,189.18A34.23,34.23,0,0,1,190.27,180h0a34.51,34.51,0,1,1,24.78,9.13Zm-22.05-10.6A32.55,32.55,0,1,0,181.15,156a32.36,32.36,0,0,0,10.45,22.62Z"/><path class="cls-3" d="M220.44,142.49a2.61,2.61,0,1,0-.93-3.57,2.6,2.6,0,0,0,.93,3.57"/><path class="cls-3" d="M227.93,129.74a2.61,2.61,0,1,0-.93-3.57,2.61,2.61,0,0,0,.93,3.57"/><circle class="cls-4" cx="203.62" cy="173.38" r="5.63"/><path class="cls-3" d="M190.25,150.11s2.35,2.2,6.85,7.26c9.87,11.09-3.36,35.39-13.76,24.8-3.13-3.19-9.21-17-12.31-24.31Z"/><path class="cls-4" d="M191.73,185.31a7.64,7.64,0,1,0-.43-10.79,7.63,7.63,0,0,0,.43,10.79"/><path class="cls-7" d="M196.91,188.07a8.31,8.31,0,0,1-5.68-2.22h0a8.38,8.38,0,1,1,5.68,2.22Zm-4.69-3.3a6.9,6.9,0,1,0-.38-9.75,6.92,6.92,0,0,0,.38,9.75Z"/><path class="cls-3" d="M181.49,166.87a88.6,88.6,0,0,0,32.26-41.8c3-8.43-4.05-15.19-13-15.13-19.2.12-30.4,16-36.38,35.41C164.36,145.35,163,156.44,181.49,166.87Z"/><circle class="cls-3" cx="155.53" cy="156.49" r="26.81"/><circle class="cls-3" cx="115.56" cy="165.46" r="18.96"/><path class="cls-3" d="M222.67,321c-44.5,0-75.76-20-76.21-20.26a1,1,0,0,1-.28-1.35,1,1,0,0,1,1.35-.29c.64.42,64.64,41.24,139.78,4.88a1,1,0,0,1,.85,1.76A149,149,0,0,1,222.67,321Z"/><path class="cls-3" d="M195.87,352.73c-2.82,0-5.15-1.72-6.69-5a10.8,10.8,0,0,1-.2-9c4.58-11.19,25.43-19,26.32-19.35a1,1,0,0,1,.85.08,1,1,0,0,1,.46.71c1.54,12.27-9.71,29.68-18.49,32.23A7.93,7.93,0,0,1,195.87,352.73Zm18.89-31c-4.53,1.85-20.32,8.85-24,17.77a8.78,8.78,0,0,0,.16,7.45c1.53,3.26,3.7,4.44,6.61,3.6C206.31,348,215,331.32,214.76,321.69Z"/><path class="cls-3" d="M237,352.73a7.93,7.93,0,0,1-2.25-.34c-8.78-2.55-20-20-18.49-32.23a.94.94,0,0,1,.46-.71,1,1,0,0,1,.85-.08c.88.32,21.74,8.16,26.31,19.35a10.8,10.8,0,0,1-.19,9C242.12,351,239.79,352.73,237,352.73Zm-18.9-31c-.27,9.63,8.46,26.28,17.2,28.82,2.91.84,5.07-.34,6.61-3.6a8.82,8.82,0,0,0,.16-7.45C238.39,330.54,222.6,323.54,218.07,321.69Z"/><path class="cls-4" d="M353.68,76.84a13.82,13.82,0,0,0-7,1.88V78a1.09,1.09,0,0,0-.82-1.06l-4.77-1.28a1.09,1.09,0,0,0-1.38,1.06v29.58a1.09,1.09,0,0,0,1.1,1.09h4.77a1.09,1.09,0,0,0,1.1-1.09V90.78a7,7,0,1,1,13.93,0v15.55a1.09,1.09,0,0,0,1.1,1.09h4.77a1.09,1.09,0,0,0,1.1-1.09V90.78A13.94,13.94,0,0,0,353.68,76.84Z"/><path class="cls-4" d="M390.85,89l11.87-11.86a.88.88,0,0,0-.62-1.5h-6.83a2.2,2.2,0,0,0-1.55.64l-7.53,7.53V66.57a1.09,1.09,0,0,0-.81-1.06l-4.77-1.28a1.09,1.09,0,0,0-1.38,1.06v41a1.09,1.09,0,0,0,1.09,1.09h4.78a1.09,1.09,0,0,0,1.09-1.09V94.24l12.55,12.54a2.2,2.2,0,0,0,1.55.64h6.3a1.1,1.1,0,0,0,.77-1.87Z"/><path class="cls-4" d="M427.89,75.27a16.48,16.48,0,1,0,16.48,16.47A16.48,16.48,0,0,0,427.89,75.27Zm0,26.09a9.62,9.62,0,1,1,9.62-9.62A9.62,9.62,0,0,1,427.89,101.36Z"/><path class="cls-4" d="M292.11,75.44A16.26,16.26,0,0,0,276,91.71V107a9.29,9.29,0,0,1-6.14,8.87.82.82,0,0,0-.14,1.49l4.53,2.61a2.2,2.2,0,0,0,2.43-.16A16,16,0,0,0,283.11,107V91.63a9,9,0,0,1,8.74-9.08,8.89,8.89,0,0,1,9,9,9,9,0,0,1-9.09,8.74h-3.93a1.1,1.1,0,0,0-1.1,1.1v4.92a1.09,1.09,0,0,0,1.1,1.09h3.85A16.25,16.25,0,0,0,308,91.32,16,16,0,0,0,292.11,75.44Z"/><path class="cls-4" d="M326.15,77l-4.77-1.28A1.1,1.1,0,0,0,320,76.75v29.58a1.1,1.1,0,0,0,1.1,1.09h4.78a1.09,1.09,0,0,0,1.09-1.09V78A1.08,1.08,0,0,0,326.15,77Z"/><path class="cls-4" d="M460.48,77l-4.77-1.28a1.09,1.09,0,0,0-1.38,1.06v29.58a1.09,1.09,0,0,0,1.1,1.09h4.77a1.09,1.09,0,0,0,1.1-1.09V78A1.09,1.09,0,0,0,460.48,77Z"/><path class="cls-3" d="M348.12,359.15H94.51c-18.3,0-33.19-14.42-33.19-32.13V276.41a1,1,0,1,1,2,0V327c0,16.63,14,30.17,31.23,30.17H348.12a1,1,0,0,1,0,2Z"/><path class="cls-3" d="M400.32,359.15H374.9a1,1,0,0,1,0-2h25.42a1,1,0,1,1,0,2Z"/><path class="cls-4" d="M84.68,221.64c-12.6,0-22.82-9.73-22.81-21.73h0A22.26,22.26,0,0,1,39.4,222h0c12.6,0,22.82,9.73,22.82,21.73a22.26,22.26,0,0,1,22.46-22.07Z"/><path class="cls-3" d="M62.22,244.69h0a1,1,0,0,1-1-1h0a20.14,20.14,0,0,0-6.38-14.66A22.31,22.31,0,0,0,39.41,223h0a1,1,0,1,1,0-2h.3a21.56,21.56,0,0,0,14.9-6.18,20.73,20.73,0,0,0,6.28-14.91h0a1,1,0,0,1,1-1h0a1,1,0,0,1,1,1v.29a20.09,20.09,0,0,0,6.37,14.37,22.29,22.29,0,0,0,15.46,6.09h0a1,1,0,0,1,0,2A21.31,21.31,0,0,0,63.2,243.71h0A1,1,0,0,1,62.22,244.69ZM46.28,222a23.84,23.84,0,0,1,9.93,5.68,22.28,22.28,0,0,1,6,9.51,23,23,0,0,1,5.92-9.75,23.44,23.44,0,0,1,9.7-5.74A23.9,23.9,0,0,1,67.87,216a22.46,22.46,0,0,1-6-9.52A22.91,22.91,0,0,1,56,216.22,23.46,23.46,0,0,1,46.28,222Z"/></g></g></svg>