<svg xmlns="http://www.w3.org/2000/svg" width="600" height="360" viewBox="0 0 600 360"><defs><style>.cls-1{fill:none;}.cls-2{fill:#dbf0ec;}.cls-3{fill:#033251;}.cls-4{fill:#fff;}.cls-5{fill:#68a9c7;}</style></defs><title>Asset 15</title><g id="Layer_2" data-name="Layer 2"><g id="插圖本人"><rect class="cls-1" width="600" height="360"/><path class="cls-2" d="M428.38,332H131.32c-14.4,0-52.68-11.78-52.68-26.18V102.73a26.26,26.26,0,0,1,26.18-26.19H429a26.26,26.26,0,0,1,26.18,26.19V305.41a27.68,27.68,0,0,1-1.32,7.61A26.57,26.57,0,0,1,428.38,332Z"/><path class="cls-3" d="M431.3,332.69H308.69a.94.94,0,1,1,0-1.87H431.3a21.54,21.54,0,0,0,21.51-21.51V260.07a.94.94,0,0,1,1.87,0v49.24A23.41,23.41,0,0,1,431.3,332.69Z"/><path class="cls-3" d="M291.85,332.69H261.93a.94.94,0,1,1,0-1.87h29.92a.94.94,0,1,1,0,1.87Z"/><path class="cls-4" d="M565.48,196.05v0l-82.62,13.5,12.47,76.08,33-5.37a18.92,18.92,0,0,0,7-2.7,21.92,21.92,0,0,0,4-3.26c.61-.63,1.19-1.3,1.75-2,5.53-7.09,8.15-18,6.25-29.52l.21,1.27,48-7.86-1.94-11.86C590.78,206.85,578.24,194.37,565.48,196.05Z"/><path class="cls-3" d="M494.68,286.5,482,208.85l.79-.13,84-13.72-.06.13c12.87-.77,24.89,11.66,27.74,29l2.07,12.65-48,7.87c1.26,10.64-1.19,21-6.71,28.07a26,26,0,0,1-1.81,2.07,22.19,22.19,0,0,1-4.12,3.37,19.56,19.56,0,0,1-7.34,2.81Zm-10.89-76.33L496,284.67l32.25-5.24a17.89,17.89,0,0,0,6.74-2.59,21.24,21.24,0,0,0,3.84-3.13c.58-.61,1.15-1.26,1.69-1.95,5.6-7.17,7.88-18,6.09-28.89l1.58-.26h0l.08.48,46.39-7.6-1.81-11.07c-2.76-16.82-15-29.18-27.27-27.57l-1.23.16Z"/><path class="cls-4" d="M501,250.3,469.09,56.47l-103,17L398,267.3c3,18.48,16.46,31.66,30,29.44l103-17C517.46,282,504,268.78,501,250.3Z"/><path class="cls-3" d="M425.05,297.78c-12.85,0-24.94-12.87-27.81-30.35l-32-194.62L469.75,55.55l.13.79,31.91,193.83c2.95,18,16,30.91,29.06,28.78h0l.26,1.58-103,17A19.06,19.06,0,0,1,425.05,297.78ZM367,74.13l31.78,193c2.95,18,16,30.93,29.07,28.78l95.39-15.75c-11-2.69-20.56-14.46-23.07-29.77l-31.78-193Z"/><path class="cls-3" d="M396.78,176.88a.6.6,0,0,1-.59-.5.61.61,0,0,1,.49-.69l74.18-12.63a.61.61,0,0,1,.69.5.6.6,0,0,1-.49.69l-74.17,12.63Z"/><path class="cls-3" d="M399.81,195.31a.6.6,0,0,1-.11-1.19l62.73-10.75a.59.59,0,0,1,.69.49.6.6,0,0,1-.49.69L399.91,195.3Z"/><path class="cls-3" d="M403,214.85a.59.59,0,0,1-.59-.5.6.6,0,0,1,.49-.69L477.08,201a.61.61,0,0,1,.7.49.6.6,0,0,1-.49.69l-74.18,12.63Z"/><path class="cls-3" d="M405.94,232.72a.59.59,0,0,1-.59-.5.6.6,0,0,1,.49-.69l46.36-8.07a.59.59,0,0,1,.69.49.6.6,0,0,1-.48.69L406,232.71Z"/><path class="cls-3" d="M469.89,183.35a.6.6,0,0,1-.1-1.19l3.28-.54a.6.6,0,0,1,.68.5.59.59,0,0,1-.49.69l-3.27.53Z"/><path class="cls-3" d="M458,223.71a.6.6,0,0,1-.1-1.19l3.27-.54a.6.6,0,0,1,.2,1.19l-3.27.53Z"/><rect class="cls-3" x="366.93" y="64.19" width="103.56" height="18.19" transform="translate(-6.34 68.69) rotate(-9.31)"/><path class="cls-3" d="M368.49,91.47l-3.17-19.38,103.61-17,3.18,19.37ZM367,73.28l2.72,16.54L470.46,73.3l-2.71-16.54Z"/><circle class="cls-3" cx="427.86" cy="122.72" r="20.68"/><path class="cls-4" d="M422.46,119.32l-1.1-6.7a4.33,4.33,0,0,1,6.8-4.21,4.24,4.24,0,0,1,1.74,2.81l1.1,6.7-1.18.2-1.1-6.7a3.13,3.13,0,1,0-6.17,1l1.1,6.7Z"/><polygon class="cls-4" points="438.28 134.93 420.99 137.76 418.03 116.39 434.26 113.73 438.28 134.93"/><path class="cls-3" d="M420.82,138l-3-21.76.19,0,16.42-2.69,0,.19,4.06,21.4-.2,0Zm-2.56-21.43,2.9,21,16.89-2.77L434.1,114Z"/><polygon class="cls-3" points="418.56 120.16 418.5 119.77 434.93 117.08 434.99 117.47 418.56 120.16"/><path class="cls-3" d="M546.81,244.48,543,213.81c-.17-11.26,6.82-16.51,24.94-18.79l.2,1.59c-17.1,2.15-23.7,6.94-23.55,17.09l3.77,30.59Z"/><path class="cls-4" d="M344.82,26.65l54.92-7.11a12.41,12.41,0,0,1,7.55,1.36c2,1.13,3.85,2.92,3.45,5.7a5.77,5.77,0,0,1-1.95,3.48c-2.55,2.2-11,6.35-18.74,4.13"/><path class="cls-3" d="M394.79,35.78a18,18,0,0,1-5-.68l.52-1.79c7.63,2.17,15.77-2.12,17.86-3.94a4.74,4.74,0,0,0,1.64-2.9c.28-1.94-.69-3.49-3-4.75a11.53,11.53,0,0,0-7-1.25l-54.92,7.11-.24-1.86,54.92-7.11a13.49,13.49,0,0,1,8.12,1.47c3,1.63,4.32,3.93,3.92,6.65a6.61,6.61,0,0,1-2.26,4.05A25,25,0,0,1,394.79,35.78Z"/><path class="cls-4" d="M317.24,32.6s20.37-11.69,60.2-2.61c0,0,22.94,6.13,31.5,15.36a7,7,0,0,1,.31,9.21,10.87,10.87,0,0,1-6.56,3.62,15.55,15.55,0,0,1-6.44-.27c-4.29-1.08-15-3.8-18.75-6.09"/><path class="cls-3" d="M400.15,59.34a17.44,17.44,0,0,1-4.13-.52c-9.9-2.48-16.3-4.56-19-6.2l1-1.6c2.54,1.54,8.76,3.55,18.49,6a14.28,14.28,0,0,0,6,.26,10,10,0,0,0,6-3.31,6,6,0,0,0-.29-8C400,37.06,377.43,31,377.2,30.9c-39-8.89-59.29,2.39-59.49,2.51l-.93-1.63c.84-.48,21.13-11.76,60.87-2.7,1,.26,23.33,6.31,32,15.64A7.87,7.87,0,0,1,410,55.16a11.75,11.75,0,0,1-7.11,3.94A15.23,15.23,0,0,1,400.15,59.34Z"/><path class="cls-4" d="M274.84,126.51c25.82,10,66.36-3.15,91.27-11.65,8.56-2.93,19.77-8.08,23.87-17.31,6.4-14.43-12.84-12.59-21.61-9.91-13.33,4.06-31.62,12.75-41.06-.16-11.71-16,7.75-28.09,21.58-24.67a46.06,46.06,0,0,1,10.93,4.42c5,2.73,11.34,7.86,16.63,10.16S390,79.87,395,77a7.17,7.17,0,0,0,3.38-3.86c2.75-8.79-10.85-15-16.67-18.63q-14.55-9.12-29.16-18.16l-1.76-.87a48.73,48.73,0,0,0-55,9.31L235.66,96.53"/><path class="cls-3" d="M297.14,131.08c-8.14,0-15.87-1.06-22.64-3.7l.68-1.74C301.56,135.9,345,121.09,365.81,114c12.4-4.23,20.24-9.89,23.31-16.81,1.57-3.52,1.6-6.17.1-7.86-3.39-3.83-14.07-2.75-20.57-.77-1.82.56-3.74,1.2-5.71,1.86-12.4,4.16-27.84,9.33-36.39-2.36-4.48-6.13-5-12.42-1.44-17.71,4.56-6.79,15.33-10.56,24-8.42a46.82,46.82,0,0,1,11.16,4.51c2.08,1.14,4.34,2.66,6.74,4.26a69.92,69.92,0,0,0,9.82,5.87c4.69,2,12.79,2.48,17.7-.39a6.17,6.17,0,0,0,3-3.33C399.63,66,390.27,60.54,384.07,57c-1.06-.61-2-1.18-2.86-1.69q-14.55-9.12-29.16-18.15l-1.67-.83a47.9,47.9,0,0,0-53.9,9.14L236.27,97.24l-1.22-1.42L295.22,44a49.76,49.76,0,0,1,56-9.44c.59.28,1.18.57,1.78.88q14.7,9.1,29.24,18.19c.8.51,1.76,1.06,2.8,1.66,6.71,3.89,16.85,9.77,14.27,18a8.12,8.12,0,0,1-3.81,4.39c-5.48,3.2-14.16,2.76-19.39.48a71.15,71.15,0,0,1-10.11-6c-2.36-1.59-4.59-3.08-6.6-4.18a44.32,44.32,0,0,0-10.71-4.33c-8-2-17.84,1.46-22,7.64-2.17,3.25-3.7,8.58,1.41,15.56,7.74,10.6,21.84,5.87,34.28,1.7,2-.67,3.92-1.32,5.75-1.88,6.76-2.06,18.33-3.41,22.52,1.32,2,2.29,2.1,5.61.21,9.86-3.29,7.42-11.5,13.41-24.42,17.82C349.42,121.54,321.46,131.08,297.14,131.08Z"/><path class="cls-3" d="M376,110.34c-1.12-7.11,0-12.18,3.22-15.08,4.63-4.13,11.8-2.2,12.11-2.11l-.5,1.8c-.07,0-6.51-1.74-10.37,1.71-2.75,2.45-3.63,7-2.62,13.4Z"/><path class="cls-4" d="M386.38,57.22s-2.3,11.31,11.88,16"/><path class="cls-3" d="M398,74.1c-14.8-4.88-12.53-16.95-12.51-17.07l1.83.37c-.08.43-1.92,10.58,11.26,14.92Z"/><path class="cls-3" d="M409.05,54.38c-14.51-4.55-11-16.59-10.94-16.71l1.79.55c-.13.42-3,10.39,9.71,14.37Z"/><path class="cls-3" d="M401.34,26.35a14.33,14.33,0,0,1-11.24-5.11l1.52-1.09c.24.32,5.91,7.9,18,2.28l.78,1.7A21.58,21.58,0,0,1,401.34,26.35Z"/><polygon class="cls-3" points="404.4 82.13 372.05 82.46 364.52 71.55 407.2 64.88 404.4 82.13"/><circle class="cls-5" cx="154.62" cy="195.58" r="140.54" transform="translate(-93.01 166.61) rotate(-45)"/><path class="cls-4" d="M153.48,137.75c-41,0-79.62-9.26-108.67-26.08a.89.89,0,0,1,.9-1.54c28.77,16.66,67,25.84,107.77,25.84,42,0,82.54-10.17,111.24-27.91a.88.88,0,0,1,1.22.28.9.9,0,0,1-.28,1.23C236.26,127.74,196.42,137.75,153.48,137.75Z"/><path class="cls-4" d="M155.75,337c-41.85,0-75.89-63.61-75.89-141.79,0-79.5,32.67-141.78,74.38-141.78,20.47,0,39.85,14.82,54.57,41.73s22.84,62.44,22.84,100C231.65,273.35,197.6,337,155.75,337ZM154.24,55.17c-40.71,0-72.6,61.5-72.6,140,0,77.2,33.24,140,74.11,140s74.12-62.81,74.12-140c0-37.31-8-72.55-22.62-99.2C192.85,69.66,174,55.17,154.24,55.17Z"/><path class="cls-4" d="M261.7,284.94a.92.92,0,0,1-.45-.12c-28.77-16.66-67-25.84-107.77-25.84-45.54,0-80.58,7.88-107.12,24.11a.89.89,0,1,1-.93-1.52c26.83-16.4,62.17-24.37,108-24.37,41,0,79.63,9.26,108.67,26.08a.89.89,0,0,1-.45,1.66Z"/><path class="cls-4" d="M294.4,196.85H14.07a.89.89,0,0,1,0-1.78H294.4a.89.89,0,0,1,0,1.78Z"/><path class="cls-4" d="M155,336.26a.89.89,0,0,1-.89-.89V55a.89.89,0,0,1,1.78,0V335.37A.89.89,0,0,1,155,336.26Z"/></g></g></svg>