<svg xmlns="http://www.w3.org/2000/svg" width="600" height="360" viewBox="0 0 600 360"><defs><style>.cls-1{fill:none;}.cls-2{fill:#dbf0ec;}.cls-3,.cls-9{fill:#033251;}.cls-4{fill:#fff;}.cls-5{fill:#033453;}.cls-6{fill:#68a9c7;}.cls-7{fill:#003354;}.cls-8{fill:#ddd;}.cls-9{fill-rule:evenodd;}.cls-10{fill:#68a6c4;}</style></defs><title>Asset 16</title><g id="Layer_2" data-name="Layer 2"><g id="插圖本人"><rect class="cls-1" width="600" height="360"/><path class="cls-2" d="M505,332H128.86a22.85,22.85,0,0,1-22.79-22.78V82.05a12.82,12.82,0,0,1,12.79-12.78H505a12.82,12.82,0,0,1,12.78,12.78V319.23A12.82,12.82,0,0,1,505,332Z"/><path class="cls-3" d="M533.77,129.8a.93.93,0,0,1-.93-.93V70.75a21.36,21.36,0,0,0-21.33-21.34H286.9a.93.93,0,1,1,0-1.85H511.51A23.21,23.21,0,0,1,534.7,70.75v58.12A.93.93,0,0,1,533.77,129.8Z"/><path class="cls-3" d="M106.62,276.45a.69.69,0,0,1-.7-.69V243.29a.7.7,0,1,1,1.39,0v32.47A.69.69,0,0,1,106.62,276.45Z"/><path class="cls-3" d="M533.77,163.5a.93.93,0,0,1-.93-.92V147.89a.93.93,0,1,1,1.86,0v14.69A.93.93,0,0,1,533.77,163.5Z"/><path class="cls-4" d="M546,207.37a8.47,8.47,0,1,1-8.47-8.46,8.47,8.47,0,0,1,8.47,8.46"/><path class="cls-4" d="M504.48,331.3h-440A12,12,0,0,1,54.31,313L139.74,193.2a12,12,0,0,1,10.18-5.67H419a12,12,0,0,1,10.18,5.67L514.65,313A12,12,0,0,1,504.48,331.3Z"/><path class="cls-5" d="M504.48,332.22h-440a12.89,12.89,0,0,1-11-19.68L139,192.66a12.79,12.79,0,0,1,10.93-6.06H419a12.84,12.84,0,0,1,11,6.11L515.4,312.49a12.89,12.89,0,0,1-10.92,19.73ZM149.92,188.46a11,11,0,0,0-9.39,5.23L55.07,313.56a11,11,0,0,0,9.42,16.81h440a11,11,0,0,0,9.38-16.85l-85.4-119.79a11,11,0,0,0-9.42-5.27Z"/><path class="cls-5" d="M447.17,219.37H122.28a.93.93,0,0,1,0-1.85H447.17a.93.93,0,1,1,0,1.85Z"/><path class="cls-5" d="M119.11,299.62a.93.93,0,1,1,0-1.85l325.38,0a.93.93,0,0,1,0,1.85Z"/><path class="cls-5" d="M444.91,307.47h0L116.29,307a.93.93,0,1,1,0-1.85h0l328.62.44a.93.93,0,1,1,0,1.85Z"/><path class="cls-6" d="M177.32,111a59.51,59.51,0,1,1-35.56-76.28A59.49,59.49,0,0,1,177.32,111"/><path class="cls-7" d="M203.7,125.81c-19,0-56-9.51-90.77-22.18C87.16,94.25,63.55,83.7,46.46,73.91,34.09,66.83,19.83,57.07,22.12,50.78,25.2,42.32,54.49,48,71.68,52.12a.93.93,0,0,1-.43,1.81c-32.78-7.89-46-6.28-47.39-2.51-.52,1.44-.38,7.2,23.52,20.88,17,9.74,40.51,20.24,66.18,29.59,57.09,20.77,98.4,26.59,101.16,19,1.32-3.62-6.64-12.36-32.93-26a.93.93,0,0,1,.86-1.64c13.85,7.19,36.67,20.44,33.82,28.28C215.39,124.49,210.78,125.81,203.7,125.81Z"/><polygon class="cls-8" points="121.15 290.6 155.78 232.46 408.42 232.15 443.37 291.22 121.15 290.6"/><path class="cls-9" d="M200.6,49.92l.05,2.55L196,65.31l8-1.85,4.74-8.21L230,55,218.28,86.09l5.46.47,24.61-32.09s15.77-.95,18.59-2.58,3.92-4-.15-6-19.29-2.21-19.29-2.21L222.91,17.46l-8-1,14.88,29-20.08.19-8.33-8.26-7.18.63Z"/><path class="cls-7" d="M559.67,272.15a41.26,41.26,0,0,0-3.47-16.59A42.47,42.47,0,0,0,546.75,242a44.07,44.07,0,0,0-14-9.14,45.68,45.68,0,0,0-34.34,0,44.07,44.07,0,0,0-14,9.14,42.47,42.47,0,0,0-9.45,13.56,41.09,41.09,0,0,0-3.47,16.59,37.74,37.74,0,0,0,1.66,11.63,41.88,41.88,0,0,0,15,21.82c5.2,4,9.28,6.58,12.55,8.69,7.66,4.92,10.82,7,14,17.06a.87.87,0,0,0,.84.6h0a.86.86,0,0,0,.83-.6c3.2-10.1,6.37-12.14,14-17.06,3.27-2.11,7.34-4.73,12.54-8.69a42,42,0,0,0,15-21.82,38.1,38.1,0,0,0,1.66-11.63"/><path class="cls-4" d="M550,272.39c0,18.42-15.44,33.35-34.48,33.35S481,290.81,481,272.39,496.42,239,515.47,239,550,254,550,272.39"/><path class="cls-10" d="M525.72,263.37a10.26,10.26,0,1,1-10.25-9.91,10.09,10.09,0,0,1,10.25,9.91"/><path class="cls-10" d="M515.47,305.74a34.86,34.86,0,0,0,26.86-12.46,30.22,30.22,0,0,0-53.73,0,34.86,34.86,0,0,0,26.87,12.46"/><path class="cls-4" d="M518.57,119.29c0-.1,0-.2,0-.31h-1a19.38,19.38,0,0,1-18.75,19.35h0c0,.22,0,.44,0,.66a19.37,19.37,0,0,1,18.71,18.71h1a19.38,19.38,0,0,1,19-18.4c0-.22,0-.44,0-.66A19.37,19.37,0,0,1,518.57,119.29Z"/><path class="cls-5" d="M518.25,158.66h-.58a1,1,0,0,1-1-.9,18.48,18.48,0,0,0-17.81-17.82.92.92,0,0,1-.9-.89c0-.3,0-.49,0-.68a.94.94,0,0,1,.89-1A18.37,18.37,0,0,0,516.69,119a.93.93,0,0,1,.89-.93h.89a1.07,1.07,0,0,1,1,1l-.94.29h.93a18.54,18.54,0,0,0,18.14,18.45.92.92,0,0,1,.91.93c0,.2,0,.4,0,.6a1,1,0,0,1-.92,1,18.49,18.49,0,0,0-18.09,17.53.92.92,0,0,1-.91.88Zm-15.07-20a20.38,20.38,0,0,1,14.94,15.6A20.4,20.4,0,0,1,533,139a20.48,20.48,0,0,1-15-15.58A20.21,20.21,0,0,1,503.18,138.68ZM518.25,119h0v0Z"/><path class="cls-10" d="M380.38,219.46a29.17,29.17,0,1,1-29.16-29.16,29.16,29.16,0,0,1,29.16,29.16"/><path class="cls-4" d="M360,211.51a8.76,8.76,0,1,1-8.75-8.76,8.75,8.75,0,0,1,8.75,8.76"/><path class="cls-4" d="M351.22,248.91a29.35,29.35,0,0,0,22.93-11,25.42,25.42,0,0,0-45.87,0,29.35,29.35,0,0,0,22.94,11"/><path class="cls-3" d="M229.92,263a38.3,38.3,0,1,1-38.29-38.29A38.29,38.29,0,0,1,229.92,263"/><path class="cls-4" d="M203.22,252.41a11.59,11.59,0,1,1-11.59-11.59,11.59,11.59,0,0,1,11.59,11.59"/><path class="cls-4" d="M191.63,302A38.86,38.86,0,0,0,222,287.38a33.66,33.66,0,0,0-60.75,0A38.9,38.9,0,0,0,191.63,302"/><path class="cls-3" d="M191.63,224.66A38.3,38.3,0,1,1,153.33,263a38.29,38.29,0,0,1,38.3-38.29m0-2.35A40.64,40.64,0,1,0,232.27,263a40.68,40.68,0,0,0-40.64-40.64"/></g></g></svg>